<svg width="29" height="29" viewBox="0 0 29 29" fill="none" xmlns="http://www.w3.org/2000/svg">
    <path d="M8.25 25.5C8.80228 25.5 9.25 25.0523 9.25 24.5C9.25 23.9477 8.80228 23.5 8.25 23.5C7.69772 23.5 7.25 23.9477 7.25 24.5C7.25 25.0523 7.69772 25.5 8.25 25.5Z" fill="#565E6C"/>
    <path d="M22.25 25.5C22.8023 25.5 23.25 25.0523 23.25 24.5C23.25 23.9477 22.8023 23.5 22.25 23.5C21.6977 23.5 21.25 23.9477 21.25 24.5C21.25 25.0523 21.6977 25.5 22.25 25.5Z" fill="#565E6C"/>
    <path d="M8.25 25.5C8.80228 25.5 9.25 25.0523 9.25 24.5C9.25 23.9477 8.80228 23.5 8.25 23.5C7.69772 23.5 7.25 23.9477 7.25 24.5C7.25 25.0523 7.69772 25.5 8.25 25.5Z" stroke="#565E6C" stroke-width="2.4" stroke-miterlimit="10" stroke-linecap="square"/>
    <path d="M22.25 25.5C22.8023 25.5 23.25 25.0523 23.25 24.5C23.25 23.9477 22.8023 23.5 22.25 23.5C21.6977 23.5 21.25 23.9477 21.25 24.5C21.25 25.0523 21.6977 25.5 22.25 25.5Z" stroke="#565E6C" stroke-width="2.4" stroke-miterlimit="10" stroke-linecap="square"/>
    <path d="M7.05 9.5L24.25 9.5L22.572 17.892C22.385 18.827 21.564 19.5 20.611 19.5L10.001 19.5C8.999 19.5 8.151 18.758 8.019 17.764L6.25 4.5L3.25 4.5" stroke="#565E6C" stroke-width="2.4" stroke-miterlimit="10" stroke-linecap="square"/>
</svg>