<svg width="29" height="29" viewBox="0 0 29 29" fill="none" xmlns="http://www.w3.org/2000/svg">
    <path d="M16.992 23.914L24.164 16.742C24.3498 16.5563 24.4972 16.3358 24.5978 16.0931C24.6983 15.8503 24.7501 15.5902 24.7501 15.3275C24.7501 15.0648 24.6983 14.8046 24.5978 14.5619C24.4972 14.3192 24.3498 14.0987 24.164 13.913L14.75 4.5L4.75 4.5L4.75 14.5L14.163 23.915C14.3488 24.1007 14.5694 24.2481 14.8121 24.3485C15.0548 24.449 15.315 24.5007 15.5777 24.5006C15.8404 24.5005 16.1005 24.4486 16.3432 24.348C16.5859 24.2473 16.8063 24.0999 16.992 23.914Z" stroke="#565E6C" stroke-width="2.4" stroke-miterlimit="10" stroke-linecap="square"/>
    <path d="M10.75 12.5C11.8546 12.5 12.75 11.6046 12.75 10.5C12.75 9.39543 11.8546 8.5 10.75 8.5C9.64543 8.5 8.75 9.39543 8.75 10.5C8.75 11.6046 9.64543 12.5 10.75 12.5Z" stroke="#565E6C" stroke-width="2.4" stroke-miterlimit="10" stroke-linecap="square"/>
</svg>