<svg width="29" height="29" viewBox="0 0 29 29" fill="none" xmlns="http://www.w3.org/2000/svg">
    <path d="M14.75 14.5C11.989 14.5 9.75 12.261 9.75 9.5V8.5C9.75 5.739 11.989 3.5 14.75 3.5C17.511 3.5 19.75 5.739 19.75 8.5V9.5C19.75 12.261 17.511 14.5 14.75 14.5Z" stroke="#565E6C" stroke-width="2.4" stroke-miterlimit="10" stroke-linecap="square"/>
    <path d="M24.75 23.408C24.75 21.608 23.553 20.025 21.816 19.552C19.922 19.035 17.336 18.5 14.75 18.5C12.164 18.5 9.578 19.035 7.684 19.552C5.947 20.025 4.75 21.608 4.75 23.408L4.75 25.5L24.75 25.5V23.408Z" stroke="#565E6C" stroke-width="2.4" stroke-miterlimit="10" stroke-linecap="square"/>
</svg>